<?xml version="1.0" encoding="UTF-8" standalone="no" ?>
<!-- Created with Inkscape (http://www.inkscape.org/) -->

<svg version="1.1" preserveAspectRatio="xMinYMin"  viewBox="0 0 128.69 128.69" >

    <defs id="defs214" />
    <g id="circle">
        <g id="round_base_1_">
            <g id="g6">
                <circle cx="64.349998" cy="64.349998" r="63.779999" id="circle8" style="fill:#72b19c;fill-rule:evenodd" />
            </g>
        </g>
    </g>
    <g id="computer">
        <linearGradient x1="64.542999" y1="94.947502" x2="64.542999" y2="103.6261" id="SVGID_1_" gradientUnits="userSpaceOnUse">
            <stop id="stop12" style="stop-color:#c9cccc;stop-opacity:1" offset="0" />
            <stop id="stop14" style="stop-color:#edf0f0;stop-opacity:1" offset="1" />
        </linearGradient>
        <path d="M 72.75,96.7 V 90.53 H 57.34 v 6.17 c 0,2.69 -1.06,6.86 -4.83,6.86 h 24.08 c -3.78,0.01 -3.84,-4.17 -3.84,-6.86 z" id="path16" style="fill:url(#SVGID_1_);fill-rule:evenodd" />
        <g id="body_2_">
            <g id="g19">
                <path d="M 103.27,32.6 H 25.82 c -2.35,0 -4.26,1.91 -4.26,4.26 v 50.43 c 0,2.35 1.91,4.26 4.26,4.26 h 76.89 c 2.35,0 4.82,-1.91 4.82,-4.26 V 36.86 c 0,-2.35 -1.91,-4.26 -4.26,-4.26 z" id="path21" style="fill:#edf0f0;fill-rule:evenodd" />
            </g>
        </g>
        <g id="border__x26__logo">
            <g id="g24">
                <path d="M 103.3,32.57 H 25.82 c -2.35,0 -4.26,1.91 -4.26,4.26 0,0 0,42.75 0,42.74 0,0 85.95,-0.01 86,0 V 36.82 c 0,-2.35 -1.9,-4.25 -4.26,-4.25 z m -38.75,50 c -1.65,0 -2.98,1.34 -2.98,2.98 0,1.65 1.34,2.98 2.98,2.98 1.65,0 2.98,-1.34 2.98,-2.98 0,-1.65 -1.33,-2.98 -2.98,-2.98 z" id="path26" style="fill:#36434f;fill-rule:evenodd" />
            </g>
        </g>
        <g id="screen_2_">
            <g id="g29">
                <path d="m 26.53,37.53 v 37.04 c 0.03,0.05 75.83,-0.01 76,0 V 37.53 c 0.01,0.01 -76,0 -76,0 z" id="path31" style="fill:#465765;fill-rule:evenodd" />
            </g>
        </g>
        <g id="layer_2_">
            <g id="g34">
                <rect width="24.08" height="0.99000001" x="52.5" y="103.57" id="rect36" style="fill:#36745f;fill-rule:evenodd" />
            </g>
        </g>
    </g>
    <g id="green_1_" style="enable-background:new">
        <g id="browser">
            <g id="base_3_">
                <g id="g41">
                    <path d="m 100.87,41.5 c 0,-1.3 -1.1,-2.36 -2.47,-2.36 H 54.92 c -1.36,0 -2.47,1.06 -2.47,2.36 v 29.45 c 0,1.3 1.1,2.36 2.47,2.36 h 43.52 c 1.36,0 2.47,-1.06 2.47,-2.36 L 100.87,41.5 z" id="path43" style="fill:#e4e6e7;fill-rule:evenodd" />
                </g>
            </g>
            <path d="M 98,46.31 V 70.56 H 55.35 V 46.31 c -0.01,0.01 42.66,0 42.65,0 z" id="path45" style="fill:#f5f6fa;fill-rule:evenodd" />
            <g id="g47">
                <g id="g49">
                    <ellipse cx="56.220001" cy="42.150002" rx="1.4400001" ry="1.38" id="ellipse51" style="fill:#a4402b;fill-rule:evenodd" />
                </g>
                <g id="g53">
                    <ellipse cx="60.84" cy="42.150002" rx="1.4400001" ry="1.38" id="ellipse55" style="fill:#ca7b44;fill-rule:evenodd" />
                </g>
                <g id="g57">
                    <ellipse cx="65.449997" cy="42.150002" rx="1.4400001" ry="1.38" id="ellipse59" style="fill:#72b19c;fill-rule:evenodd" />
                </g>
            </g>
        </g>
        <g id="content">
            <rect width="13" height="11.01" x="76.650002" y="50.200001" id="rect62" style="fill:#7e7e7f;fill-rule:evenodd" />
            <rect width="13" height="11.01" x="76.410004" y="49.84" id="rect64" style="fill:#ffffff;fill-rule:evenodd" />
            <rect width="12.87" height="16.139999" x="63.779999" y="48.759998" id="rect66" style="fill:#7e7e7f;fill-rule:evenodd" />
            <rect width="12.87" height="16.139999" x="63.540001" y="48.400002" id="rect68" style="fill:#ffffff;fill-rule:evenodd" />
            <rect width="5.0999999" height="2.788878" x="64.910004" y="-52.62888" transform="scale(1,-1)" id="rect70" style="fill:#cccccc;fill-rule:evenodd" />
            <rect width="7.5500002" height="1.48" x="68.650002" y="66.160004" id="rect72" style="fill:#428bca;fill-rule:evenodd" />
            <rect width="5.0999999" height="1.09" x="64.910004" y="60.630001" id="rect76" style="fill:#cccccc;fill-rule:evenodd" />
            <rect width="10.58" height="6.3881955" x="64.870003" y="53.439999" id="rect78" style="fill:#cccccc;fill-rule:evenodd" />
            <rect width="5.0999999" height="4.5165505" x="78.959999" y="55.23" id="rect86" style="fill:#cccccc;fill-rule:evenodd" />
            <g id="g92">
                <g id="g94">
                    <g id="g96">
                        <g id="g98">
                            <g id="g100">
                                <polygon points="60.77,69.73 61.19,69.16 62.52,69.16 62.09,69.73 " id="polygon102" style="fill:#f5f6fa;fill-rule:evenodd" />
                            </g>
                            <g id="g104">
                                <polygon points="59.44,69.73 59.86,69.16 61.19,69.16 60.77,69.73 " id="polygon106" style="fill:#de1e26;fill-rule:evenodd" />
                            </g>
                            <g id="g108">
                                <polygon points="58.12,69.73 58.54,69.16 59.86,69.16 59.44,69.73 " id="polygon110" style="fill:#f5f6fa;fill-rule:evenodd" />
                            </g>
                            <polygon points="56.79,69.73 57.21,69.16 58.54,69.16 58.12,69.73 " id="polygon112" style="fill:#3e479d;fill-rule:evenodd" />
                        </g>
                        <g id="g114">
                            <g id="g116">
                                <polygon points="66.49,69.73 66.92,69.16 68.24,69.16 67.82,69.73 " id="polygon118" style="fill:#f5f6fa;fill-rule:evenodd" />
                            </g>
                            <g id="g120">
                                <polygon points="65.17,69.73 65.59,69.16 66.92,69.16 66.49,69.73 " id="polygon122" style="fill:#de1e26;fill-rule:evenodd" />
                            </g>
                            <g id="g124">
                                <polygon points="63.84,69.73 64.27,69.16 65.59,69.16 65.17,69.73 " id="polygon126" style="fill:#f5f6fa;fill-rule:evenodd" />
                            </g>
                            <polygon points="62.52,69.73 62.94,69.16 64.27,69.16 63.84,69.73 " id="polygon128" style="fill:#3e479d;fill-rule:evenodd" />
                        </g>
                        <g id="g130">
                            <g id="g132">
                                <polygon points="72.22,69.73 72.64,69.16 73.97,69.16 73.55,69.73 " id="polygon134" style="fill:#f5f6fa;fill-rule:evenodd" />
                            </g>
                            <g id="g136">
                                <polygon points="70.9,69.73 71.32,69.16 72.64,69.16 72.22,69.73 " id="polygon138" style="fill:#de1e26;fill-rule:evenodd" />
                            </g>
                            <g id="g140">
                                <polygon points="69.57,69.73 69.99,69.16 71.32,69.16 70.9,69.73 " id="polygon142" style="fill:#f5f6fa;fill-rule:evenodd" />
                            </g>
                            <polygon points="68.24,69.73 68.67,69.16 69.99,69.16 69.57,69.73 " id="polygon144" style="fill:#3e479d;fill-rule:evenodd" />
                        </g>
                        <g id="g146">
                            <g id="g148">
                                <polygon points="77.95,69.73 78.37,69.16 79.7,69.16 79.28,69.73 " id="polygon150" style="fill:#f5f6fa;fill-rule:evenodd" />
                            </g>
                            <g id="g152">
                                <polygon points="76.62,69.73 77.05,69.16 78.37,69.16 77.95,69.73 " id="polygon154" style="fill:#de1e26;fill-rule:evenodd" />
                            </g>
                            <g id="g156">
                                <polygon points="75.3,69.73 75.72,69.16 77.05,69.16 76.62,69.73 " id="polygon158" style="fill:#f5f6fa;fill-rule:evenodd" />
                            </g>
                            <polygon points="73.97,69.73 74.39,69.16 75.72,69.16 75.3,69.73 " id="polygon160" style="fill:#3e479d;fill-rule:evenodd" />
                        </g>
                        <g id="g162">
                            <g id="g164">
                                <polygon points="83.68,69.73 84.1,69.16 85.43,69.16 85,69.73 " id="polygon166" style="fill:#f5f6fa;fill-rule:evenodd" />
                            </g>
                            <g id="g168">
                                <polygon points="82.35,69.73 82.77,69.16 84.1,69.16 83.68,69.73 " id="polygon170" style="fill:#de1e26;fill-rule:evenodd" />
                            </g>
                            <g id="g172">
                                <polygon points="81.02,69.73 81.45,69.16 82.77,69.16 82.35,69.73 " id="polygon174" style="fill:#f5f6fa;fill-rule:evenodd" />
                            </g>
                            <polygon points="79.7,69.73 80.12,69.16 81.45,69.16 81.02,69.73 " id="polygon176" style="fill:#3e479d;fill-rule:evenodd" />
                        </g>
                        <g id="g178">
                            <g id="g180">
                                <polygon points="89.4,69.73 89.83,69.16 91.15,69.16 90.73,69.73 " id="polygon182" style="fill:#f5f6fa;fill-rule:evenodd" />
                            </g>
                            <g id="g184">
                                <polygon points="88.08,69.73 88.5,69.16 89.83,69.16 89.4,69.73 " id="polygon186" style="fill:#de1e26;fill-rule:evenodd" />
                            </g>
                            <g id="g188">
                                <polygon points="86.75,69.73 87.17,69.16 88.5,69.16 88.08,69.73 " id="polygon190" style="fill:#f5f6fa;fill-rule:evenodd" />
                            </g>
                            <polygon points="85.43,69.73 85.85,69.16 87.17,69.16 86.75,69.73 " id="polygon192" style="fill:#3e479d;fill-rule:evenodd" />
                        </g>
                        <g id="g194">
                            <g id="g196">
                                <polygon points="95.13,69.73 95.55,69.16 96.88,69.16 96.46,69.73 " id="polygon198" style="fill:#f5f6fa;fill-rule:evenodd" />
                            </g>
                            <g id="g200">
                                <polygon points="93.8,69.73 94.23,69.16 95.55,69.16 95.13,69.73 " id="polygon202" style="fill:#de1e26;fill-rule:evenodd" />
                            </g>
                            <g id="g204">
                                <polygon points="92.48,69.73 92.9,69.16 94.23,69.16 93.8,69.73 " id="polygon206" style="fill:#f5f6fa;fill-rule:evenodd" />
                            </g>
                            <polygon points="91.15,69.73 91.58,69.16 92.9,69.16 92.48,69.73 " id="polygon208" style="fill:#3e479d;fill-rule:evenodd" />
                        </g>
                    </g>
                </g>
            </g>
            <rect width="1.97" height="1.3" x="85.669998" y="52" id="rect210" style="fill:#de1e26;fill-rule:evenodd" />
        </g>
    </g>
</svg>
