<?xml version="1.0" standalone="no"?>
<!DOCTYPE svg PUBLIC "-//W3C//DTD SVG 20010904//EN"
 "http://www.w3.org/TR/2001/REC-SVG-20010904/DTD/svg10.dtd">
<svg version="1.0" xmlns="http://www.w3.org/2000/svg"
 width="720.000000pt" height="720.000000pt" viewBox="0 0 720.000000 720.000000"
 preserveAspectRatio="xMidYMid meet">
<metadata>
Created by potrace 1.11, written by Peter Selinger 2001-2013
</metadata>
<g transform="translate(0.000000,720.000000) scale(0.100000,-0.100000)"
fill="#000000" stroke="none">
<path d="M5643 7184 c-132 -35 -262 -141 -340 -279 -24 -43 -76 -152 -90 -190
-35 -96 -119 -394 -128 -455 -2 -14 -11 -61 -19 -105 -8 -44 -17 -100 -20
-125 -3 -25 -8 -56 -11 -70 -3 -14 -7 -41 -10 -60 -6 -40 -13 -75 -15 -75 -2
0 -5 -15 -14 -54 -24 -106 -86 -240 -135 -290 -37 -37 -51 -48 -135 -103 -106
-69 -261 -223 -433 -430 -42 -51 -87 -103 -98 -114 -20 -22 -98 -110 -134
-153 -23 -26 -140 -157 -186 -207 -16 -18 -57 -63 -90 -100 -33 -38 -71 -80
-85 -95 -14 -15 -50 -55 -82 -90 -31 -35 -69 -78 -85 -95 -32 -35 -169 -186
-196 -218 -24 -27 -153 -169 -193 -213 -18 -18 -56 -61 -85 -94 -30 -33 -67
-75 -84 -92 -31 -33 -190 -207 -234 -255 -174 -193 -339 -362 -484 -495 -147
-135 -154 -141 -177 -157 -13 -8 -32 -24 -44 -35 -18 -17 -196 -149 -296 -220
-43 -30 -164 -118 -175 -127 -10 -9 -183 -137 -223 -166 -13 -9 -39 -28 -57
-42 -18 -14 -43 -32 -55 -40 -12 -8 -36 -27 -54 -42 -17 -15 -34 -28 -37 -28
-3 0 -17 -9 -30 -20 -39 -32 -42 -34 -104 -80 -33 -25 -73 -60 -90 -79 -16
-19 -37 -42 -45 -50 -26 -27 -70 -89 -70 -99 0 -6 -4 -12 -9 -14 -15 -5 -99
-173 -107 -213 -7 -41 -15 -50 -89 -110 -28 -22 -92 -81 -142 -131 -86 -85
-120 -134 -108 -154 12 -19 117 13 290 90 199 88 325 129 450 146 28 3 59 8
70 11 11 2 29 6 40 8 24 5 135 39 310 94 72 23 143 44 159 47 16 3 33 7 38 10
4 3 16 7 25 9 10 2 38 8 63 14 25 6 51 11 57 11 12 0 -35 -71 -228 -350 -44
-63 -92 -133 -106 -154 -14 -22 -29 -44 -34 -50 -5 -6 -36 -49 -68 -96 -33
-47 -64 -90 -69 -96 -5 -5 -22 -30 -38 -55 -16 -24 -31 -46 -34 -49 -3 -3 -43
-58 -89 -123 -46 -65 -89 -124 -97 -132 -8 -7 -14 -18 -14 -23 0 -6 -3 -12 -7
-14 -5 -2 -20 -21 -36 -43 -15 -22 -47 -62 -72 -90 -25 -27 -45 -55 -45 -62 0
-29 91 -26 184 6 142 50 159 64 638 541 379 378 494 486 633 592 6 5 40 32 76
61 36 28 80 63 99 77 18 14 42 33 54 43 11 10 36 31 55 45 19 15 39 32 45 37
22 22 105 75 115 75 6 0 11 3 11 8 0 4 9 12 20 17 32 16 234 137 240 144 3 3
23 18 45 32 22 15 55 41 74 58 19 17 39 31 45 32 6 0 18 2 26 4 8 2 27 6 41 9
152 32 496 159 507 188 2 4 9 8 15 8 7 0 25 11 40 25 15 14 27 22 28 18 0 -4
2 -24 3 -43 9 -108 48 -192 126 -272 31 -32 59 -58 63 -58 10 0 109 -74 200
-149 51 -42 217 -203 217 -211 0 -3 -24 -5 -53 -6 -53 -1 -163 -12 -198 -20
-96 -21 -114 -27 -160 -55 -25 -16 -51 -40 -57 -54 l-12 -26 50 6 c28 3 50 2
50 -3 0 -5 17 -17 39 -26 41 -19 72 -18 211 8 54 10 134 13 285 10 116 -2 221
-5 235 -8 14 -2 43 -7 65 -11 22 -4 83 -7 135 -7 88 1 119 1 145 0 19 0 160
13 195 19 44 7 147 5 171 -2 24 -8 24 2 -2 44 -23 38 -26 33 34 76 18 13 18
15 1 50 -9 20 -27 40 -38 45 -31 11 -145 5 -256 -15 -101 -18 -329 -27 -365
-15 -11 4 -38 13 -60 20 -36 12 -133 69 -161 95 -6 6 -28 24 -49 40 -21 17
-62 51 -90 78 -29 26 -64 57 -79 68 -39 31 -95 123 -111 184 -24 94 -5 148 95
270 36 44 68 85 72 90 5 6 20 24 35 41 33 38 42 49 113 139 69 87 65 83 147
185 85 107 76 96 125 160 24 30 45 57 48 60 3 3 29 37 58 77 35 47 74 86 114
113 33 22 64 40 68 40 5 0 10 3 12 8 2 4 48 41 102 82 116 87 281 248 348 337
53 72 114 177 123 215 4 14 28 53 55 86 55 69 107 157 114 196 4 23 89 135
109 144 4 2 7 8 7 12 0 5 13 29 30 53 28 41 83 154 108 222 20 52 60 213 55
219 -3 2 -1 10 3 17 10 17 17 100 17 229 2 225 -29 395 -114 630 -22 63 -42
120 -43 125 -1 6 -7 26 -14 45 -6 19 -14 46 -16 60 -3 14 -10 43 -15 65 -26
109 -32 228 -16 300 16 72 72 182 117 230 36 40 108 80 167 92 42 10 211 6
276 -6 132 -23 125 -23 125 -1 0 53 -61 131 -210 265 -25 23 -79 77 -120 121
-41 45 -84 86 -96 92 -11 6 -38 45 -60 88 -35 69 -110 154 -137 154 -9 0 -23
6 -109 44 -57 25 -164 65 -190 70 -13 3 -34 8 -48 11 -54 13 -196 13 -247 -1z"/>
</g>
</svg>
