<svg class="logo-bird" version="1.1" viewBox="0 0 163 180">
<g class="pigeon">
  <path d="M162.96,22.04c0,0,0.88-2.65-5.53-7.28c0,0-3.82-4.63-5.23-5.29c-1.41-0.66-1.18-4.63-5.39-6.17 c-4.2-1.54-17.91-10.36-25.2,9.37c0,0-2.65,7.61-3.54,13.78s-1.99,15.43-6.85,18.08c-4.86,2.65-10.39,9.26-13.04,12.57 c-2.65,3.31-41.12,45.86-44.88,49.61c-3.76,3.75-8.62,8.38-12.6,11.25c-3.98,2.87-23.02,16.76-25.77,19.18s-6.51,8.6-6.51,11.02 c0,0-17.02,13.67-2.65,7.28s9.73-2.65,19.46-5.95s12.82-3.53,12.82-3.53S17.9,175.5,14.93,178.37s4.54,1.76,8.97-1.76l22.33-22.27 c0,0,10.83-8.38,12.82-10.14c1.99-1.76,11.28-6.39,13.04-8.82c0,0,12.82-2.65,17.02-6.61c0,0-0.88,5.73,5.09,9.7 c5.97,3.97,10.17,8.82,10.17,8.82s-11.52,0-12.06,3.97c0,0,1.45-0.22,2.33-0.22c0,0,1.11,1.98,4.86,0.88s13.71-0.66,16.36,0 c2.65,0.66,11.5-0.22,12.6-0.44c1.11-0.22,3.98,0.22,3.98,0.22l-1.33-2.2c0,0,2.43-0.88,1.77-1.76c-0.66-0.88-0.44-2.2-4.64-1.54 c-4.2,0.66-10.17,1.54-13.49,0.44s-10.39-7.94-10.39-7.94s-4.42-4.85-0.88-9.04c3.54-4.19,15.7-19.4,17.69-22.27 c0,0,14.81-8.6,18.13-18.96c0,0,3.76-3.97,3.98-6.84c0,0,13.27-11.69,5.97-35.28c0,0-5.31-12.57-3.1-18.08 C148.37,22.7,150.58,19.39,162.96,22.04z" />
</g>
</svg>