<?xml version="1.0" encoding="utf-8"?>
<!-- Generator: Adobe Illustrator 17.0.1, SVG Export Plug-In . SVG Version: 6.00 Build 0)  -->
<!DOCTYPE svg PUBLIC "-//W3C//DTD SVG 1.1//EN" "http://www.w3.org/Graphics/SVG/1.1/DTD/svg11.dtd">
<svg version="1.1" viewBox="0 0 214.141 339.394">
  <g id="ball">
    <path id="outline_2_" fill="none" stroke="#171717" stroke-width="3" stroke-linecap="round" stroke-linejoin="round" stroke-miterlimit="10" d="
    M200.24,339.758v-95.333c0-10.579-1.844-20.335-4.915-28.072h0.452L140.649,87.455h-12.332V44.396l-2.223-6.469h-0.164
    c0.107-0.968,0.164-1.955,0.164-2.958c0-7.234-2.885-13.654-7.342-17.677h-1.039c-1.612-3.878-5.435-6.606-9.897-6.606
    s-8.285,2.728-9.897,6.606h-1.039c-4.457,4.023-7.342,10.443-7.342,17.677c0,1.003,0.057,1.99,0.164,2.958h-0.164l-2.223,6.469
    v43.058H74.984L18.857,218.687h0.58c-2.546,7.326-4.046,16.197-4.046,25.738v95.333"/>
  <g id="colour_2_">
    <path fill="#4BC8F3" d="M60.83,339.758v-95.333c0-24.945-10.223-45.354-22.719-45.354s-22.719,20.409-22.719,45.354v95.333H60.83z
      "/>
    <path fill="#4BC8F3" d="M154.803,339.758v-95.333c0-24.945-20.409-45.354-45.354-45.354h-3.265
      c-24.945,0-45.354,20.409-45.354,45.354v95.333H154.803z"/>
    <path fill="#4BC8F3" d="M200.24,339.758v-95.333c0-24.945-10.223-45.354-22.719-45.354c-12.495,0-22.719,20.409-22.719,45.354
      v95.333H200.24z"/>
    <path fill="#C8EAF4" d="M117.713,17.293c-1.612-3.878-5.435-6.606-9.897-6.606c-4.462,0-8.285,2.728-9.897,6.606H117.713z"/>
    <path fill="#AF9C84" d="M125.93,37.927c0.107-0.968,0.164-1.955,0.164-2.958c0-7.234-2.885-13.654-7.342-17.676H96.881
      c-4.457,4.023-7.342,10.443-7.342,17.676c0,1.003,0.057,1.99,0.164,2.958H125.93z"/>
    <polygon fill="#AF9C84" points="128.317,44.396 87.316,44.396 89.539,37.927 126.094,37.927     "/>
    <rect x="87.316" y="44.396" fill="#AF9C84" width="41.001" height="43.058"/>
    <path fill="#4BC8F3" d="M74.984,87.455L18.857,218.687h0.582c4.11-11.829,10.956-19.616,18.672-19.616
      c12.427,0,22.603,20.19,22.714,44.95h0.016c0.22-24.76,20.535-44.95,45.344-44.95h3.265c24.809,0,45.124,20.19,45.344,44.95h0.016
      c0.11-24.76,10.286-44.95,22.714-44.95c7.196,0,13.632,6.777,17.801,17.283h0.455L140.649,87.455H74.984z"/>
  </g>
  <g id="lines_2_">
    <path fill="none" stroke="#171717" stroke-linecap="round" stroke-linejoin="round" stroke-miterlimit="10" d="M60.83,339.758
      v-95.333c0-24.945-10.223-45.354-22.719-45.354s-22.719,20.409-22.719,45.354v95.333"/>
    <path fill="none" stroke="#171717" stroke-linecap="round" stroke-linejoin="round" stroke-miterlimit="10" d="M154.803,339.758
      v-95.333c0-24.945-20.409-45.354-45.354-45.354h-3.265c-24.945,0-45.354,20.409-45.354,45.354v95.333"/>
    <path fill="none" stroke="#171717" stroke-linecap="round" stroke-linejoin="round" stroke-miterlimit="10" d="M200.24,339.758
      v-95.333c0-24.945-10.223-45.354-22.719-45.354c-12.495,0-22.719,20.409-22.719,45.354v95.333"/>
    <path fill="none" stroke="#171717" stroke-linecap="round" stroke-linejoin="round" stroke-miterlimit="10" d="M117.713,17.293
      c-1.612-3.878-5.435-6.606-9.897-6.606c-4.462,0-8.285,2.728-9.897,6.606H117.713z"/>
    <path fill="none" stroke="#171717" stroke-linecap="round" stroke-linejoin="round" stroke-miterlimit="10" d="M125.93,37.927
      c0.107-0.968,0.164-1.955,0.164-2.958c0-7.234-2.885-13.654-7.342-17.676H96.881c-4.457,4.023-7.342,10.443-7.342,17.676
      c0,1.003,0.057,1.99,0.164,2.958H125.93z"/>
    <polygon fill="none" stroke="#171717" stroke-linecap="round" stroke-linejoin="round" stroke-miterlimit="10" points="
      128.317,44.396 87.316,44.396 89.539,37.927 126.094,37.927     "/>
    
      <rect x="87.316" y="44.396" fill="none" stroke="#171717" stroke-linecap="round" stroke-linejoin="round" stroke-miterlimit="10" width="41.001" height="43.058"/>
    <polyline fill="none" stroke="#171717" stroke-linecap="round" stroke-linejoin="round" stroke-miterlimit="10" points="
      195.778,216.354 140.649,87.455 74.984,87.455 18.857,218.687     "/>
  </g>
</g>
<g id="fountain">
  <g id="outline_1_">
    <path fill="none" stroke="#171717" stroke-width="3" stroke-linecap="round" stroke-linejoin="round" stroke-miterlimit="10" d="
      M109.333,9.425v125.553c0.169,1.365,0.577,2.484,1.455,3.434c5.659,1.342,9.873,6.412,9.873,12.481
      c0,7.095-5.751,12.846-12.846,12.846c-7.095,0-12.846-5.751-12.846-12.846c0-6.069,4.215-11.139,9.873-12.481
      c0.878-0.951,1.287-2.07,1.456-3.435V9.425c-0.732,1.392-48.947,92.823-97.826,126.596
      c22.706,22.897,31.798,91.578,37.847,135.156c0.706,5.085,2.507,6.114,7.163,6.094c18.111-0.079,36.222-0.1,54.333-0.103
      c18.111,0.003,36.222,0.023,54.333,0.103c4.657,0.02,6.458-1.009,7.163-6.094c6.049-43.578,15.14-112.26,37.847-135.156
      C158.281,102.249,110.068,10.822,109.333,9.425z"/>
      <polyline fill="none" stroke="#171717" stroke-width="3" stroke-linecap="round" stroke-linejoin="round" stroke-miterlimit="10" points="
      31.325,339.625 31.325,286.403 184.307,286.403 184.307,339.625     "/>
  </g>
  <g id="colour_1_">
    <path fill="#B0B0B0" d="M109.333,9.425v125.553c0.169,1.365,0.577,2.484,1.455,3.434c5.659,1.342,9.873,6.412,9.873,12.481
      c0,7.095-5.751,12.846-12.846,12.846c-7.095,0-12.846-5.751-12.846-12.846c0-6.069,4.215-11.139,9.873-12.481
      c0.878-0.951,1.287-2.07,1.456-3.435V9.425c-0.732,1.392-48.947,92.823-97.826,126.596
      c22.706,22.897,31.798,91.578,37.847,135.156c0.706,5.085,2.507,6.114,7.163,6.094c18.111-0.079,36.222-0.1,54.333-0.103
      c18.111,0.003,36.222,0.023,54.333,0.103c4.657,0.02,6.458-1.009,7.163-6.094c6.049-43.578,15.14-112.26,37.847-135.156
      C158.281,102.249,110.068,10.822,109.333,9.425z"/>
    <rect x="31.325" y="286.403" fill="#787878" width="152.982" height="53.222"/>
  </g>
  <g id="lines_1_">
    <path fill="none" stroke="#171717" stroke-linecap="round" stroke-linejoin="round" stroke-miterlimit="10" d="M109.333,9.425
      v125.553c0.169,1.365,0.577,2.484,1.455,3.434c5.659,1.342,9.873,6.412,9.873,12.481c0,7.095-5.751,12.846-12.846,12.846
      c-7.095,0-12.846-5.751-12.846-12.846c0-6.069,4.215-11.139,9.873-12.481c0.878-0.951,1.287-2.07,1.456-3.435V9.425
      c-0.732,1.392-48.947,92.823-97.826,126.596c22.706,22.897,31.798,91.578,37.847,135.156c0.706,5.085,2.507,6.114,7.163,6.094
      c18.111-0.079,36.222-0.1,54.333-0.103c18.111,0.003,36.222,0.023,54.333,0.103c4.657,0.02,6.458-1.009,7.163-6.094
      c6.049-43.578,15.14-112.26,37.847-135.156C158.281,102.249,110.068,10.822,109.333,9.425z"/>
    <polyline fill="none" stroke="#171717" stroke-linecap="round" stroke-linejoin="round" stroke-miterlimit="10" points="
      31.325,339.625 31.325,286.403 184.307,286.403 184.307,339.625     "/>
  </g>
</g>
<g id="pencil">
  
    <path id="outline" fill="none" stroke="#171717" stroke-width="3" stroke-linecap="round" stroke-linejoin="round" stroke-miterlimit="10" d="
    M200.24,339.758v-95.333c0-10.579-1.844-20.335-4.915-28.072L107.816,10.687l-88.379,208c-2.546,7.326-4.046,16.197-4.046,25.738
    v95.333"/>
  <g id="colour">
    <path fill="#31331B" d="M60.83,339.758v-95.333c0-24.945-10.223-45.354-22.719-45.354s-22.719,20.409-22.719,45.354v95.333H60.83z
      "/>
    <path fill="#FCEE1E" d="M154.803,339.758v-95.333c0-24.945-20.409-45.354-45.354-45.354h-3.265
      c-24.945,0-45.354,20.409-45.354,45.354v95.333H154.803z"/>
    <path fill="#31331B" d="M200.24,339.758v-95.333c0-24.945-10.223-45.354-22.719-45.354c-12.495,0-22.719,20.409-22.719,45.354
      v95.333H200.24z"/>
    <polygon fill="#3F3F3F" points="129.849,62.202 107.816,10.687 85.784,62.202     "/>
    <path fill="#ECC58A" d="M129.849,62.202H85.784L18.857,218.687h0.582c4.11-11.829,10.956-19.616,18.672-19.616
      c12.427,0,22.603,20.19,22.714,44.95h0.016c0.22-24.76,20.535-44.95,45.344-44.95h3.265c24.809,0,45.124,20.19,45.344,44.95h0.016
      c0.11-24.76,10.286-44.95,22.714-44.95c7.196,0,13.632,6.777,17.801,17.283h0.455L129.849,62.202z"/>
  </g>
  <g id="lines">
    <path fill="none" stroke="#171717" stroke-linecap="round" stroke-linejoin="round" stroke-miterlimit="10" d="M60.83,339.758
      v-95.333c0-24.945-10.223-45.354-22.719-45.354s-22.719,20.409-22.719,45.354v95.333"/>
    <path fill="none" stroke="#171717" stroke-linecap="round" stroke-linejoin="round" stroke-miterlimit="10" d="M154.803,339.758
      v-95.333c0-24.945-20.409-45.354-45.354-45.354h-3.265c-24.945,0-45.354,20.409-45.354,45.354v95.333"/>
    <path fill="none" stroke="#171717" stroke-linecap="round" stroke-linejoin="round" stroke-miterlimit="10" d="M200.24,339.758
      v-95.333c0-24.945-10.223-45.354-22.719-45.354c-12.495,0-22.719,20.409-22.719,45.354v95.333"/>
    <polygon fill="none" stroke="#171717" stroke-linecap="round" stroke-linejoin="round" stroke-miterlimit="10" points="
      129.849,62.202 107.816,10.687 85.784,62.202     "/>
    <polyline fill="none" stroke="#171717" stroke-linecap="round" stroke-linejoin="round" stroke-miterlimit="10" points="
      195.778,216.354 129.849,62.202 85.784,62.202 18.857,218.687     "/>
  </g>
</g>
</svg>
